<?xml version="1.0" encoding="UTF-8"?>
<svg width="76px" height="79px" viewBox="0 0 76 79" version="1.1" xmlns="http://www.w3.org/2000/svg" xmlns:xlink="http://www.w3.org/1999/xlink">
    <!-- Generator: Sketch 52.4 (67378) - http://www.bohemiancoding.com/sketch -->
    <title>noun_Developer forum_1619889</title>
    <desc>Created with Sketch.</desc>
    <defs>
        <path d="M46.6992409,41.7391304 L36.359862,34.0803313 L7.12877847,34.0803313 C3.55467219,34.0803313 0.746445825,31.2721049 0.746445825,27.6979986 L0.746445825,7.27453416 C0.746445825,3.70042788 3.55467219,0.892201518 7.12877847,0.892201518 L50.5286404,0.892201518 C54.1027467,0.892201518 56.9109731,3.70042788 56.9109731,7.27453416 L56.9109731,27.6979986 C56.9109731,31.2721049 54.1027467,34.0803313 50.5286404,34.0803313 L46.6992409,34.0803313" id="path-1"></path>
    </defs>
    <g id="Page-1" stroke="none" stroke-width="1" fill="none" fill-rule="evenodd">
        <g id="Home_Page" transform="translate(-733.000000, -4188.000000)">
            <g id="our_plan" transform="translate(0.000000, 3854.000000)">
                <g id="Group-7" transform="translate(684.000000, 334.000000)">
                    <g id="noun_Developer-forum_1619889" transform="translate(49.000000, 0.000000)">
                        <polygon id="Shape" fill="#616991" fill-rule="nonzero" points="41.3800414 63.2676881 31.4236025 54.5877157 41.3800414 45.9077433 43.1670945 47.9500897 35.2530021 54.5877157 43.1670945 61.2253416"></polygon>
                        <polygon id="Shape" fill="#616991" fill-rule="nonzero" points="53.3788268 63.2676881 51.5917736 61.2253416 59.5058661 54.5877157 51.5917736 47.9500897 53.3788268 45.9077433 63.3352657 54.5877157"></polygon>
                        <polygon id="Rectangle-path" fill="#616991" fill-rule="nonzero" transform="translate(47.375860, 54.593077) rotate(-170.526375) translate(-47.375860, -54.593077) " points="46.0993436 46.8063269 48.6523764 46.8063269 48.6523764 62.3798268 46.0993436 62.3798268"></polygon>
                        <path d="M21.699931,11.4881988 C21.699931,10.7223188 22.2105176,10.2117322 22.9763975,10.2117322 L25.5293306,10.2117322 L25.5293306,7.65879917 L22.9763975,7.65879917 C20.8064044,7.65879917 19.1469979,9.31820566 19.1469979,11.4881988 L19.1469979,12.7646653 C19.1469979,14.1687785 17.9981781,15.3175983 16.5940649,15.3175983 L16.5940649,17.8705314 C17.9981781,17.8705314 19.1469979,19.0193513 19.1469979,20.4234645 L19.1469979,21.699931 C19.1469979,23.8699241 20.8064044,25.5293306 22.9763975,25.5293306 L25.5293306,25.5293306 L25.5293306,22.9763975 L22.9763975,22.9763975 C22.2105176,22.9763975 21.699931,22.4658109 21.699931,21.699931 L21.699931,19.4022912 C21.699931,18.2534714 21.1893444,17.2322981 20.4234645,16.5940649 C21.1893444,15.828185 21.699931,14.8070117 21.699931,13.7858385 L21.699931,11.4881988 Z" id="Shape" fill="#FFFFFF" fill-rule="nonzero"></path>
                        <path d="M34.4645963,11.4881988 C34.4645963,10.7223188 33.9540097,10.2117322 33.1881297,10.2117322 L30.6351967,10.2117322 L30.6351967,7.65879917 L33.1881297,7.65879917 C35.3581228,7.65879917 37.0175293,9.31820566 37.0175293,11.4881988 L37.0175293,12.7646653 C37.0175293,14.1687785 38.1663492,15.3175983 39.5704624,15.3175983 L39.5704624,17.8705314 C38.1663492,17.8705314 37.0175293,19.0193513 37.0175293,20.4234645 L37.0175293,21.699931 C37.0175293,23.8699241 35.3581228,25.5293306 33.1881297,25.5293306 L30.6351967,25.5293306 L30.6351967,22.9763975 L33.1881297,22.9763975 C33.9540097,22.9763975 34.4645963,22.4658109 34.4645963,21.699931 L34.4645963,19.4022912 C34.4645963,18.2534714 34.9751829,17.2322981 35.7410628,16.5940649 C34.9751829,15.828185 34.4645963,14.8070117 34.4645963,13.7858385 L34.4645963,11.4881988 Z" id="Shape" fill="#FFFFFF" fill-rule="nonzero"></path>
                        <path d="M10.2117322,40.8469289 L10.2117322,33.1881297 L6.38233264,33.1881297 C2.80822636,33.1881297 0,30.3799034 0,26.8057971 L0,6.38233264 C0,2.80822636 2.80822636,0 6.38233264,0 L49.7821946,0 C53.3563009,0 56.1645273,2.80822636 56.1645273,6.38233264 L56.1645273,26.8057971 C56.1645273,30.3799034 53.3563009,33.1881297 49.7821946,33.1881297 L20.5511111,33.1881297 L10.2117322,40.8469289 Z M6.38233264,2.55293306 C4.21233954,2.55293306 2.55293306,4.21233954 2.55293306,6.38233264 L2.55293306,26.8057971 C2.55293306,28.9757902 4.21233954,30.6351967 6.38233264,30.6351967 L12.7646653,30.6351967 L12.7646653,35.7410628 L19.6575845,30.6351967 L49.7821946,30.6351967 C51.9521877,30.6351967 53.6115942,28.9757902 53.6115942,26.8057971 L53.6115942,6.38233264 C53.6115942,4.21233954 51.9521877,2.55293306 49.7821946,2.55293306 L6.38233264,2.55293306 Z" id="Shape" fill="#FFFFFF" fill-rule="nonzero"></path>
                        <g id="Group-3" transform="translate(18.550725, 37.101449)">
                            <mask id="mask-2" fill="white">
                                <use xlink:href="#path-1"></use>
                            </mask>
                            <use id="Mask" fill="#FFFFFF" fill-rule="nonzero" opacity="0.3" xlink:href="#path-1"></use>
                            <g mask="url(#mask-2)" fill="#FFFFFF" fill-rule="nonzero">
                                <g transform="translate(12.753623, 8.115942)">
                                    <polygon id="Shape" points="10.0756936 18.0502968 0.119254658 9.37032436 10.0756936 0.690351967 11.8627467 2.73269841 3.94865424 9.37032436 11.8627467 16.0079503"></polygon>
                                    <polygon id="Shape" points="22.074479 18.0502968 20.2874258 16.0079503 28.2015183 9.37032436 20.2874258 2.73269841 22.074479 0.690351967 32.0309179 9.37032436"></polygon>
                                    <polygon id="Rectangle-path" points="16.0489698 17.2663421 13.5307566 16.8461293 16.0940546 1.48502897 18.6122677 1.90524175"></polygon>
                                </g>
                            </g>
                        </g>
                    </g>
                </g>
            </g>
        </g>
    </g>
</svg>