<?xml version="1.0" encoding="UTF-8"?>
<svg width="69px" height="80px" viewBox="0 0 69 80" version="1.1" xmlns="http://www.w3.org/2000/svg" xmlns:xlink="http://www.w3.org/1999/xlink">
    <!-- Generator: Sketch 52.4 (67378) - http://www.bohemiancoding.com/sketch -->
    <title>noun_report_48258</title>
    <desc>Created with Sketch.</desc>
    <g id="Page-1" stroke="none" stroke-width="1" fill="none" fill-rule="evenodd">
        <g id="Home_Page" transform="translate(-1507.000000, -4187.000000)" fill="#FFFFFF" fill-rule="nonzero">
            <g id="our_plan" transform="translate(0.000000, 3854.000000)">
                <g id="Group-5" transform="translate(1503.000000, 333.000000)">
                    <g id="noun_report_48258" transform="translate(4.000000, 0.000000)">
                        <g id="Group">
                            <polygon id="Shape" points="11.7647059 25.5058824 16.9411765 24.8470588 24.2823529 28.3294118 33.1294118 24.5647059 38.0235294 25.8823529 44.6117647 19.9529412 44.6117647 40 11.7647059 40"></polygon>
                            <polygon id="Rectangle-path" points="11.7647059 46.3058824 16.1882353 46.3058824 16.1882353 57.6 11.7647059 57.6"></polygon>
                            <polygon id="Rectangle-path" opacity="0.3" points="18.9176471 49.1294118 23.3411765 49.1294118 23.3411765 57.6 18.9176471 57.6"></polygon>
                            <polygon id="Rectangle-path" points="25.9764706 47.2470588 30.4 47.2470588 30.4 57.6 25.9764706 57.6"></polygon>
                            <polygon id="Rectangle-path" opacity="0.3" points="33.0352941 51.9529412 37.4588235 51.9529412 37.4588235 57.6 33.0352941 57.6"></polygon>
                            <polygon id="Rectangle-path" points="40.1882353 45.3647059 44.6117647 45.3647059 44.6117647 57.6 40.1882353 57.6"></polygon>
                            <path d="M59.2941176,11.2941176 L59.2941176,16 L64,16 L64,75.2941176 L28.2352941,75.2941176 L56.3764706,68.7058824 L56.4705882,68.7058824 L56.4705882,0 L0,0 L0,68.7058824 L41.3176471,68.7058824 L16.9411765,74.2588235 L16.9411765,71.5294118 L12.2352941,71.5294118 L12.2352941,80 L68.7058824,80 L68.7058824,11.2941176 L59.2941176,11.2941176 Z M4.70588235,64 L4.70588235,4.70588235 L51.7647059,4.70588235 L51.7647059,64 L4.70588235,64 Z" id="Shape" opacity="0.3"></path>
                        </g>
                    </g>
                </g>
            </g>
        </g>
    </g>
</svg>