<?xml version="1.0" encoding="UTF-8"?>
<svg width="78px" height="79px" viewBox="0 0 78 79" version="1.1" xmlns="http://www.w3.org/2000/svg" xmlns:xlink="http://www.w3.org/1999/xlink">
    <!-- Generator: Sketch 52.4 (67378) - http://www.bohemiancoding.com/sketch -->
    <title>Group 14</title>
    <desc>Created with Sketch.</desc>
    <defs>
        <polygon id="path-1" points="0 0.921454545 77.8666667 0.921454545 77.8666667 78.7878788 0 78.7878788"></polygon>
    </defs>
    <g id="Page-1" stroke="none" stroke-width="1" fill="none" fill-rule="evenodd">
        <g id="Home_Page" transform="translate(-721.000000, -4414.000000)">
            <g id="our_plan" transform="translate(0.000000, 3854.000000)">
                <g id="Group-5-Copy" transform="translate(704.000000, 559.000000)">
                    <g id="Group-14" transform="translate(17.000000, 0.000000)">
                        <g id="Group-3" transform="translate(0.000000, 0.290788)">
                            <mask id="mask-2" fill="white">
                                <use xlink:href="#path-1"></use>
                            </mask>
                            <g id="Clip-2"></g>
                            <path d="M38.9345455,8.28606061 C21.5745455,8.28606061 7.28727273,22.5733333 7.28727273,39.9321212 C7.28727273,57.2933333 21.5745455,71.5806061 38.9345455,71.5806061 C56.2933333,71.5806061 70.5806061,57.2933333 70.5806061,39.9321212 C70.5806061,22.5733333 56.2933333,8.28606061 38.9345455,8.28606061 M38.9345455,1 C60.2860606,1 77.8678788,18.5806061 77.8678788,39.9321212 C77.8678788,61.2860606 60.2860606,78.8666667 38.9345455,78.8666667 C17.5818182,78.8666667 0,61.2860606 0,39.9321212 C0,18.5806061 17.5818182,1 38.9345455,1" id="Fill-1" fill="#FFFFFF" opacity="0.3" mask="url(#mask-2)"></path>
                        </g>
                        <path d="M38.6574545,12.2282424 L39.2089697,12.2282424 C40.1192727,12.2282424 40.8635152,12.7664242 40.8635152,13.4246061 L40.8635152,18.4100606 C40.8635152,19.0694545 40.1192727,19.6064242 39.2089697,19.6064242 L38.6574545,19.6064242 C37.7471515,19.6064242 37.0029091,19.0694545 37.0029091,18.4100606 L37.0029091,13.4246061 C37.0029091,12.7664242 37.7471515,12.2282424 38.6574545,12.2282424" id="Fill-4" fill="#FFFFFF"></path>
                        <path d="M11.0161212,40.4212121 L11.0161212,39.869697 C11.0161212,38.9593939 11.554303,38.2151515 12.2124848,38.2151515 L17.1979394,38.2151515 C17.8573333,38.2151515 18.394303,38.9593939 18.394303,39.869697 L18.394303,40.4212121 C18.394303,41.3315152 17.8573333,42.0757576 17.1979394,42.0757576 L12.2124848,42.0757576 C11.554303,42.0757576 11.0161212,41.3315152 11.0161212,40.4212121" id="Fill-6" fill="#FFFFFF"></path>
                        <path d="M39.2090909,68.0625455 L38.6575758,68.0625455 C37.7472727,68.0625455 37.0030303,67.5243636 37.0030303,66.8661818 L37.0030303,61.8807273 C37.0030303,61.2213333 37.7472727,60.6843636 38.6575758,60.6843636 L39.2090909,60.6843636 C40.1193939,60.6843636 40.8636364,61.2213333 40.8636364,61.8807273 L40.8636364,66.8661818 C40.8636364,67.5243636 40.1193939,68.0625455 39.2090909,68.0625455" id="Fill-8" fill="#FFFFFF"></path>
                        <path d="M66.8504242,39.8695758 L66.8504242,40.4210909 C66.8504242,41.3313939 66.3122424,42.0756364 65.6540606,42.0756364 L60.6686061,42.0756364 C60.0092121,42.0756364 59.4722424,41.3313939 59.4722424,40.4210909 L59.4722424,39.8695758 C59.4722424,38.9592727 60.0092121,38.2150303 60.6686061,38.2150303 L65.6540606,38.2150303 C66.3122424,38.2150303 66.8504242,38.9592727 66.8504242,39.8695758" id="Fill-10" fill="#FFFFFF"></path>
                        <path d="M40.7851583,38.8612349 L55.649144,27 L57.2522986,27.0537901 L56.9633089,28.6506165 L41.9790866,40.606775 C42.0613537,40.9769772 42.0729555,41.3619452 42.0086184,41.7353115 L44.8584367,44.4047749 L42.704725,46.7072003 L39.853852,44.0377369 C39.2125901,44.1906694 38.5270306,44.1231681 37.9311211,43.8362878 L33.8409674,47.100606 L32.5289119,45.4499895 L36.4946102,42.2848138 C36.3047629,41.7996486 36.254137,41.2628028 36.3416777,40.7502152 L28.1930114,33.1204647 L28,30.9804642 L30.3467231,30.819094 L38.4974988,38.4488445 C39.2779819,38.2621613 40.116474,38.4087656 40.7851583,38.8612349" id="Fill-12" fill="#FFFFFF"></path>
                    </g>
                </g>
            </g>
        </g>
    </g>
</svg>