<?xml version="1.0" encoding="UTF-8"?>
<svg width="99px" height="80px" viewBox="0 0 99 80" version="1.1" xmlns="http://www.w3.org/2000/svg" xmlns:xlink="http://www.w3.org/1999/xlink">
    <!-- Generator: Sketch 52.4 (67378) - http://www.bohemiancoding.com/sketch -->
    <title>agile</title>
    <desc>Created with Sketch.</desc>
    <g id="Page-1" stroke="none" stroke-width="1" fill="none" fill-rule="evenodd">
        <g id="Home_Page" transform="translate(-333.000000, -4187.000000)" fill="#FFFFFF" fill-rule="nonzero">
            <g id="our_plan" transform="translate(0.000000, 3854.000000)">
                <g id="Group-8" transform="translate(314.000000, 333.000000)">
                    <g id="agile" transform="translate(19.000000, 0.000000)">
                        <g id="Group">
                            <path d="M98.6063158,73.44 L89.06,68.3284211 L89.1768421,71.9905263 L61.1684211,71.9905263 C59.2294737,73.2978947 57.18,74.4378947 55.0294737,75.4010526 L89.2842105,75.4010526 L89.4031579,79.1505263 L98.6063158,73.44 Z" id="Shape"></path>
                            <path d="M64.7273684,64.4463158 C68.1621053,61.0115789 70.8578947,57.0115789 72.7421053,52.5578947 C74.6936842,47.9463158 75.6821053,43.0473684 75.6821053,37.9978947 C75.6821053,32.9484211 74.6936842,28.0515789 72.7421053,23.4389474 C70.9957895,19.3094737 68.5515789,15.5705263 65.4673684,12.3105263 L67.8031579,9.15052632 L66.9842105,9.05684211 L61.1473684,8.39473684 L57.0431579,7.92842105 L58.1284211,10.4178947 L61.28,17.6610526 L61.3663158,17.8589474 L63.3936842,15.1157895 C68.9073684,21.16 72.2715789,29.1947368 72.2715789,37.9989474 C72.2715789,56.7421053 57.0252632,71.9905263 38.2810526,71.9905263 C31.2905263,71.9905263 24.7873684,69.8684211 19.3789474,66.2368421 L20.2073684,68.9105263 L17.4789474,69.0915789 C19.4410526,70.4052632 21.5252632,71.5326316 23.7210526,72.4610526 C28.3326316,74.4126316 33.2315789,75.4010526 38.28,75.4010526 L41.7494737,75.4010526 C46.1852632,74.9926316 50.3989474,73.8094737 54.2557895,71.9905263 L53.9031579,71.9905263 C57.9326316,70.1378947 61.5694737,67.6052632 64.7273684,64.4463158 Z" id="Shape" opacity="0.306138393"></path>
                            <path d="M10.4926316,66.3863158 L15.0526316,66.9042105 L17.5,67.1831579 L14.4747368,60.2326316 L13.4547368,57.8894737 L13.1768421,57.2526316 L11.7326316,59.2042105 C7.07578947,53.3873684 4.28842105,46.0115789 4.28842105,37.9968421 C4.28842105,19.2536842 19.5357895,4.00526316 38.28,4.00526316 C44.3863158,4.00526316 50.1210526,5.62421053 55.0778947,8.45473684 L54.3368421,6.2 L57.6315789,5.98105263 C56.1010526,5.05473684 54.5010526,4.23894737 52.8389474,3.53578947 C48.2273684,1.58421053 43.3284211,0.595789474 38.28,0.595789474 C33.2315789,0.595789474 28.3326316,1.58421053 23.7210526,3.53578947 C19.2673684,5.42 15.2663158,8.11578947 11.8326316,11.5505263 C8.39894737,14.9852632 5.70105263,18.9842105 3.81789474,23.4389474 C1.86631579,28.0515789 0.877894737,32.9494737 0.877894737,37.9978947 C0.877894737,43.0463158 1.86631579,47.9463158 3.81789474,52.5578947 C5.27894737,56.0115789 7.22842105,59.1926316 9.63157895,62.0484211 L9.09473684,62.7736842 L6.73789474,65.96 L7.48736842,66.0463158 L7.70210526,66.0694737 L10.4926316,66.3863158 Z" id="Shape"></path>
                            <path d="M29.8357895,17.2 C27.0515789,18.3294737 24.5536842,19.9873684 22.4115789,22.1294737 C20.2694737,24.2715789 18.6115789,26.7684211 17.4821053,29.5536842 C16.3915789,32.2431579 15.8378947,35.0842105 15.8378947,37.9978947 C15.8378947,40.9126316 16.3905263,43.7536842 17.4821053,46.4431579 C18.6115789,49.2273684 20.2694737,51.7252632 22.4115789,53.8673684 C24.5536842,56.0084211 27.0515789,57.6663158 29.8357895,58.7957895 C31.9210526,59.6431579 34.0978947,60.1652632 36.3284211,60.3568421 L36.7610526,63.2431579 L37.2168421,62.8810526 L40.4094737,60.3389474 L41.8463158,59.1968421 L39.66,58.3368421 L36.1873684,56.9705263 L35.7989474,56.8168421 L36.0147368,58.2578947 C31.5705263,57.7652632 27.2589474,55.8189474 23.8589474,52.4189474 C15.9063158,44.4663158 15.9063158,31.5284211 23.8589474,23.5757895 C26.4494737,20.9852632 29.5694737,19.2389474 32.8726316,18.3357895 L31.6010526,17.6947368 L32.9073684,16.2031579 C31.8642105,16.4610526 30.84,16.7936842 29.8357895,17.2 Z" id="Shape" opacity="0.295179"></path>
                            <path d="M46.7242105,58.7947368 C49.5084211,57.6663158 52.0063158,56.0084211 54.1473684,53.8663158 C56.2905263,51.7242105 57.9484211,49.2263158 59.0778947,46.4410526 C60.1684211,43.7526316 60.7221053,40.9115789 60.7221053,37.9968421 C60.7221053,35.0831579 60.1694737,32.2421053 59.0778947,29.5526316 C57.9494737,26.7684211 56.2915789,24.2705263 54.1473684,22.1284211 C52.0063158,19.9863158 49.5084211,18.3284211 46.7242105,17.1989474 C44.2315789,16.1884211 41.6073684,15.6389474 38.9168421,15.5642105 L38.5673684,13.2326316 L38.1789474,13.5410526 L35.4210526,15.7357895 L33.4821053,17.2789474 L34.9978947,17.8757895 L39.4084211,19.6115789 L39.5284211,19.6578947 L39.2252632,17.6336842 C44.1284211,17.8589474 48.9642105,19.84 52.7,23.5757895 C60.6536842,31.5284211 60.6536842,44.4663158 52.7,52.4189474 C49.7347368,55.3842105 46.0757895,57.2442105 42.24,57.9968421 L43.7263158,58.78 L42.6463158,60.0136842 C44.0368421,59.7410526 45.4,59.3336842 46.7242105,58.7947368 Z" id="Shape"></path>
                        </g>
                    </g>
                </g>
            </g>
        </g>
    </g>
</svg>