<?xml version="1.0" encoding="UTF-8"?>
<svg width="76px" height="76px" viewBox="0 0 76 76" version="1.1" xmlns="http://www.w3.org/2000/svg" xmlns:xlink="http://www.w3.org/1999/xlink">
    <!-- Generator: Sketch 52.4 (67378) - http://www.bohemiancoding.com/sketch -->
    <title>noun_Scale_810358</title>
    <desc>Created with Sketch.</desc>
    <g id="Page-1" stroke="none" stroke-width="1" fill="none" fill-rule="evenodd">
        <g id="Home_Page" transform="translate(-1104.000000, -4413.000000)" fill="#FFFFFF" fill-rule="nonzero">
            <g id="our_plan" transform="translate(0.000000, 3854.000000)">
                <g id="Group-5-Copy-2" transform="translate(1102.000000, 559.000000)">
                    <g id="noun_Scale_810358" transform="translate(2.000000, 0.000000)">
                        <path d="M7.16613463,4.35476256 L18.6889994,15.8776273 L15.9030457,18.663581 L4.35720011,7.11773546 L4.33631619,17.2396112 L0.395833333,17.2298917 L0.426526436,2.36624513 C0.428061091,1.84548549 0.636774191,1.34263015 1.00764918,0.975847575 C1.37596642,0.606507237 1.87626399,0.401375 2.39702364,0.401375 C2.39804674,0.401375 2.4006045,0.401375 2.40213916,0.401375 L17.2601587,0.442299137 L17.2499277,4.38278199 L7.16613463,4.35476256 Z" id="Combined-Shape"></path>
                        <path d="M4.35762725,68.8922194 L15.9035811,57.3462655 L18.6895588,60.1322432 L7.15340225,71.6683998 L17.2556998,71.6683998 L17.2556998,75.6089165 L17.2551883,75.6089165 L2.39704086,75.6089165 C1.31049567,75.6089165 0.429596037,74.72904 0.4265267,73.6440295 L0.395833333,58.780255 L4.3363501,58.7695123 L4.35762725,68.8922194 Z" id="Combined-Shape" opacity="0.3"></path>
                        <path d="M68.8308185,71.6688541 L57.2934998,60.1315355 L60.0795179,57.3455174 L71.6267952,68.8927947 L71.6468686,58.7697798 L75.5874425,58.7805226 L75.5562371,73.6445125 C75.5541908,74.7290271 74.6743016,75.6089164 73.5867175,75.6089164 L58.7278433,75.6089164 L58.7278433,71.6688541 L68.8308185,71.6688541 Z" id="Combined-Shape"></path>
                        <path d="M71.6309534,7.11367107 L60.0848435,18.6630472 L57.2979255,15.8769173 L68.8204474,4.35113584 L58.7347857,4.37915824 L58.7245525,0.437868815 L73.5856133,0.396936301 C74.0322894,0.345259003 74.6094378,0.599552245 74.9819237,0.971526464 C75.3513397,1.33838412 75.5616304,1.84134238 75.5616304,2.36220862 L75.5923298,17.2294093 L71.6510404,17.2391308 L71.6309534,7.11367107 Z" id="Combined-Shape" opacity="0.3"></path>
                    </g>
                </g>
            </g>
        </g>
    </g>
</svg>