<?xml version="1.0" encoding="UTF-8"?>
<svg width="80px" height="80px" viewBox="0 0 80 80" version="1.1" xmlns="http://www.w3.org/2000/svg" xmlns:xlink="http://www.w3.org/1999/xlink">
    <!-- Generator: Sketch 52.4 (67378) - http://www.bohemiancoding.com/sketch -->
    <title>noun_teamwork_1211891</title>
    <desc>Created with Sketch.</desc>
    <g id="Page-1" stroke="none" stroke-width="1" fill="none" fill-rule="evenodd">
        <g id="Home_Page" transform="translate(-1104.000000, -4187.000000)" fill="#FFFFFF">
            <g id="our_plan" transform="translate(0.000000, 3854.000000)">
                <g id="Group-6" transform="translate(1090.000000, 333.000000)">
                    <g id="noun_teamwork_1211891" transform="translate(14.000000, 0.000000)">
                        <g id="Group">
                            <polygon id="Rectangle-path" fill-rule="nonzero" points="12.5333333 38.7555556 15.0222222 38.7555556 15.0222222 41.2444444 12.5333333 41.2444444"></polygon>
                            <polygon id="Rectangle-path" fill-rule="nonzero" points="38.7555556 12.5333333 41.2444444 12.5333333 41.2444444 15.0222222 38.7555556 15.0222222"></polygon>
                            <path d="M74.9333333,10.0444444 L79.9111111,10.0444444 L79.9111111,7.55555556 L74.6666667,7.55555556 C74.1333333,6.13333333 72.8,5.06666667 71.2,5.06666667 C70.7555556,5.06666667 70.2222222,5.15555556 69.7777778,5.33333333 C69.3333333,3.73333333 67.9111111,2.57777778 66.1333333,2.57777778 C65.6888889,2.57777778 65.1555556,2.66666667 64.7111111,2.84444444 C64.2666667,1.24444444 62.8444444,0.0888888889 61.0666667,0.0888888889 C59.3777778,0.0888888889 57.8666667,1.24444444 57.4222222,2.84444444 C56.9777778,2.66666667 56.5333333,2.57777778 56,2.57777778 C53.9555556,2.57777778 52.2666667,4.26666667 52.2666667,6.31111111 L52.2666667,7.55555556 L36.2666667,7.55555556 C35.3777778,7.55555556 34.5777778,8.08888889 34.1333333,8.8 L32.7111111,8.8 L27.5555556,7.28888889 L27.5555556,0.0888888889 L25.0666667,0.0888888889 L25.0666667,6.48888889 L20.4444444,5.15555556 L10.1333333,5.06666667 L10.1333333,0.0888888889 L7.64444444,0.0888888889 L7.64444444,5.33333333 C6.22222222,5.86666667 5.15555556,7.2 5.15555556,8.8 C5.15555556,9.24444444 5.24444444,9.77777778 5.42222222,10.2222222 C3.82222222,10.6666667 2.66666667,12.0888889 2.66666667,13.8666667 C2.66666667,14.3111111 2.75555556,14.8444444 2.93333333,15.2888889 C1.33333333,15.7333333 0.177777778,17.1555556 0.177777778,18.9333333 C0.177777778,20.7111111 1.33333333,22.1333333 2.93333333,22.5777778 C2.75555556,23.0222222 2.66666667,23.4666667 2.66666667,24 C2.66666667,26.0444444 4.35555556,27.7333333 6.4,27.7333333 L7.64444444,27.7333333 L7.64444444,43.9111111 C7.64444444,44.8 8.17777778,45.6 8.88888889,46.0444444 L8.88888889,46.2222222 L8.88888889,47.2888889 L7.28888889,52.4444444 L0.0888888889,52.4444444 L0.0888888889,54.9333333 L6.48888889,54.9333333 L5.15555556,59.5555556 L5.06666667,69.8666667 L0.0888888889,69.8666667 L0.0888888889,72.3555556 L5.33333333,72.3555556 C5.86666667,73.7777778 7.2,74.8444444 8.8,74.8444444 C9.24444444,74.8444444 9.77777778,74.7555556 10.2222222,74.5777778 C10.6666667,76.1777778 12.0888889,77.3333333 13.8666667,77.3333333 C14.3111111,77.3333333 14.8444444,77.2444444 15.2888889,77.0666667 C15.7333333,78.6666667 17.1555556,79.8222222 18.9333333,79.8222222 C20.6222222,79.8222222 22.1333333,78.6666667 22.5777778,77.0666667 C23.0222222,77.2444444 23.4666667,77.3333333 24,77.3333333 C26.0444444,77.3333333 27.7333333,75.6444444 27.7333333,73.6 L27.7333333,72.3555556 L43.9111111,72.3555556 C44.8,72.3555556 45.6,71.8222222 46.0444444,71.1111111 L49.6888889,71.1111111 L52.6222222,73.3333333 L52.6222222,79.9111111 L55.1111111,79.9111111 L55.1111111,75.0222222 L59.8222222,77.4222222 L65.0666667,77.4222222 C67.1111111,77.4222222 68.8,75.7333333 68.8,73.6888889 L68.8,72.4444444 L70.0444444,72.4444444 L70.0444444,79.9111111 L72.5333333,79.9111111 L72.5333333,72.4444444 L73.7777778,72.4444444 C75.8222222,72.4444444 77.5111111,70.7555556 77.5111111,68.7111111 C77.5111111,68.2666667 77.4222222,67.7333333 77.2444444,67.2888889 C78.8444444,66.8444444 80,65.4222222 80,63.6444444 C80,61.9555556 78.8444444,60.4444444 77.2444444,60 C77.4222222,59.5555556 77.5111111,59.1111111 77.5111111,58.5777778 C77.5111111,56.8888889 76.3555556,55.3777778 74.7555556,54.9333333 C74.9333333,54.4888889 75.0222222,54.0444444 75.0222222,53.5111111 C75.0222222,51.9111111 73.9555556,50.4888889 72.5333333,50.0444444 L72.5333333,36.2666667 C72.5333333,35.3777778 72,34.5777778 71.2888889,34.1333333 L71.2888889,32.7111111 L72.8,27.5555556 L80,27.5555556 L80,25.0666667 L73.6,25.0666667 L75.0222222,20.4444444 L74.9333333,10.0444444 Z M36.2666667,10.0444444 L52.4444444,10.0444444 L52.4444444,11.2888889 L51.2,11.2888889 C49.1555556,11.2888889 47.4666667,12.9777778 47.4666667,15.0222222 L47.4666667,20.2666667 L49.7777778,24.9777778 L36.2666667,24.9777778 L36.2666667,10.0444444 Z M5.06666667,23.8222222 C5.06666667,23.1111111 5.6,22.5777778 6.31111111,22.5777778 L13.7777778,22.5777778 L13.7777778,20.0888889 L6.31111111,20.0888889 L3.82222222,20.0888889 C3.11111111,20.0888889 2.57777778,19.5555556 2.57777778,18.8444444 C2.57777778,18.1333333 3.11111111,17.6 3.82222222,17.6 L6.31111111,17.6 L13.7777778,17.6 L13.7777778,15.1111111 L6.31111111,15.1111111 C5.6,15.1111111 5.06666667,14.5777778 5.06666667,13.8666667 C5.06666667,13.1555556 5.6,12.6222222 6.31111111,12.6222222 L8.8,12.6222222 L13.7777778,12.6222222 L13.7777778,10.1333333 L8.8,10.1333333 C8.08888889,10.1333333 7.55555556,9.6 7.55555556,8.88888889 C7.55555556,8.17777778 8.08888889,7.64444444 8.8,7.64444444 L19.8222222,7.64444444 L32.0888889,11.2888889 L33.6888889,11.2888889 L33.6888889,23.8222222 L29.5111111,23.8222222 L24.2666667,27.7333333 L19.6444444,30.0444444 L14.9333333,30.0444444 C14.2222222,30.0444444 13.6888889,29.5111111 13.6888889,28.8 L13.6888889,27.5555556 L17.4222222,27.5555556 L17.4222222,25.0666667 L6.31111111,25.0666667 C5.6,25.0666667 5.06666667,24.4444444 5.06666667,23.8222222 Z M11.2888889,27.5555556 L11.2888889,28.8 C11.2888889,30.8444444 12.9777778,32.5333333 15.0222222,32.5333333 L20.2666667,32.5333333 L24.9777778,30.2222222 L24.9777778,43.8222222 L10.0444444,43.8222222 L10.0444444,27.5555556 L11.2888889,27.5555556 Z M25.0666667,73.6888889 C25.0666667,74.4 24.5333333,74.9333333 23.8222222,74.9333333 C23.1111111,74.9333333 22.5777778,74.4 22.5777778,73.6888889 L22.5777778,66.2222222 L20.0888889,66.2222222 L20.0888889,73.6888889 L20.0888889,76.1777778 C20.0888889,76.8888889 19.5555556,77.4222222 18.8444444,77.4222222 C18.1333333,77.4222222 17.6,76.8888889 17.6,76.1777778 L17.6,73.6888889 L17.6,66.2222222 L15.1111111,66.2222222 L15.1111111,73.6888889 C15.1111111,74.4 14.5777778,74.9333333 13.8666667,74.9333333 C13.1555556,74.9333333 12.6222222,74.4 12.6222222,73.6888889 L12.6222222,71.2 L12.6222222,66.2222222 L10.1333333,66.2222222 L10.1333333,71.2 C10.1333333,71.9111111 9.6,72.4444444 8.88888889,72.4444444 C8.17777778,72.4444444 7.64444444,71.9111111 7.64444444,71.2 L7.64444444,60.1777778 L11.2888889,47.9111111 L11.2888889,46.3111111 L23.8222222,46.3111111 L23.8222222,50.4888889 L27.7333333,55.7333333 L30.0444444,60.3555556 L30.0444444,65.0666667 C30.0444444,65.7777778 29.5111111,66.3111111 28.8,66.3111111 L27.5555556,66.3111111 L27.5555556,62.5777778 L25.0666667,62.5777778 L25.0666667,73.6888889 Z M43.7333333,69.9555556 L27.5555556,69.9555556 L27.5555556,68.7111111 L28.8,68.7111111 C30.8444444,68.7111111 32.5333333,67.0222222 32.5333333,64.9777778 L32.5333333,59.7333333 L30.2222222,55.0222222 L43.8222222,55.0222222 L43.8222222,69.9555556 L43.7333333,69.9555556 Z M28.8,52.4444444 L28.8,52.8888889 L26.3111111,49.5111111 L26.3111111,46.2222222 L26.3111111,45.8666667 C27.0222222,45.4222222 27.5555556,44.6222222 27.5555556,43.7333333 L27.5555556,28.4444444 L30.4888889,26.3111111 L34.1333333,26.3111111 C34.5777778,27.0222222 35.3777778,27.5555556 36.2666667,27.5555556 L51.5555556,27.5555556 L53.6888889,30.4888889 L53.6888889,34.1333333 C52.9777778,34.5777778 52.4444444,35.3777778 52.4444444,36.2666667 L52.4444444,52.1777778 L47.2888889,53.6888889 L45.8666667,53.6888889 C45.4222222,52.9777778 44.6222222,52.4444444 43.7333333,52.4444444 C43.7333333,52.4444444 28.8,52.4444444 28.8,52.4444444 Z M69.9555556,36.2666667 L69.9555556,49.9555556 L59.9111111,49.9555556 L54.9333333,51.4666667 L54.9333333,36.2666667 L69.9555556,36.2666667 Z M74.9333333,58.6666667 C74.9333333,59.3777778 74.4,59.9111111 73.6888889,59.9111111 L66.2222222,59.9111111 L66.2222222,62.4 L73.6888889,62.4 L76.1777778,62.4 C76.8888889,62.4 77.4222222,62.9333333 77.4222222,63.6444444 C77.4222222,64.3555556 76.8888889,64.8888889 76.1777778,64.8888889 L73.6888889,64.8888889 L66.2222222,64.8888889 L66.2222222,67.3777778 L73.6888889,67.3777778 C74.4,67.3777778 74.9333333,67.9111111 74.9333333,68.6222222 C74.9333333,69.3333333 74.4,69.8666667 73.6888889,69.8666667 L62.4888889,69.8666667 L62.4888889,72.3555556 L66.2222222,72.3555556 L66.2222222,73.6 C66.2222222,74.3111111 65.6888889,74.8444444 64.9777778,74.8444444 L60.2666667,74.8444444 L55.6444444,72.5333333 L50.4,68.6222222 L46.2222222,68.6222222 L46.2222222,56.1777778 L47.4666667,56.1777778 L60.1777778,52.4444444 L71.2,52.4444444 C71.9111111,52.4444444 72.4444444,52.9777778 72.4444444,53.6888889 C72.4444444,54.4 71.9111111,54.9333333 71.2,54.9333333 L66.2222222,54.9333333 L66.2222222,57.4222222 L71.2,57.4222222 L73.6888889,57.4222222 C74.4,57.4222222 74.9333333,58.0444444 74.9333333,58.6666667 Z M68.7111111,32.1777778 L68.7111111,33.7777778 L56.1777778,33.7777778 L56.1777778,29.6 L52.2666667,24.3555556 L49.9555556,19.7333333 L49.9555556,15.0222222 C49.9555556,14.3111111 50.4888889,13.7777778 51.2,13.7777778 L52.4444444,13.7777778 L52.4444444,17.5111111 L54.9333333,17.5111111 L54.9333333,6.31111111 C54.9333333,5.6 55.4666667,5.06666667 56.1777778,5.06666667 C56.8888889,5.06666667 57.4222222,5.6 57.4222222,6.31111111 L57.4222222,13.7777778 L59.9111111,13.7777778 L59.9111111,6.31111111 L59.9111111,3.82222222 C59.9111111,3.11111111 60.4444444,2.57777778 61.1555556,2.57777778 C61.8666667,2.57777778 62.4,3.11111111 62.4,3.82222222 L62.4,6.31111111 L62.4,13.7777778 L64.8888889,13.7777778 L64.8888889,6.31111111 C64.8888889,5.6 65.4222222,5.06666667 66.1333333,5.06666667 C66.8444444,5.06666667 67.3777778,5.6 67.3777778,6.31111111 L67.3777778,8.8 L67.3777778,13.7777778 L69.8666667,13.7777778 L69.8666667,8.8 C69.8666667,8.08888889 70.4,7.55555556 71.1111111,7.55555556 C71.8222222,7.55555556 72.3555556,8.08888889 72.3555556,8.8 L72.3555556,19.8222222 L68.7111111,32.1777778 Z" id="Shape-Copy-2" fill-rule="nonzero" opacity="0.3"></path>
                            <path d="M11.2888889,27.5555556 L11.2888889,28.8 C11.2888889,30.8444444 12.9777778,32.5333333 15.0222222,32.5333333 L20.2666667,32.5333333 L24.9777778,30.2222222 L24.9777778,43.8222222 L10.0444444,43.8222222 L10.0444444,27.5555556 L11.2888889,27.5555556 Z" id="Path"></path>
                            <polygon id="Path" points="69.9555556 36.2666667 69.9555556 49.9555556 59.9111111 49.9555556 54.9333333 51.4666667 54.9333333 36.2666667"></polygon>
                            <polygon id="Rectangle-path" fill-rule="nonzero" points="64.9777778 38.7555556 67.4666667 38.7555556 67.4666667 41.2444444 64.9777778 41.2444444"></polygon>
                            <polygon id="Rectangle-path" fill-rule="nonzero" points="38.7555556 57.4222222 41.2444444 57.4222222 41.2444444 59.9111111 38.7555556 59.9111111"></polygon>
                        </g>
                    </g>
                </g>
            </g>
        </g>
    </g>
</svg>