<?xml version="1.0" encoding="UTF-8"?>
<svg width="80px" height="80px" viewBox="0 0 80 80" version="1.1" xmlns="http://www.w3.org/2000/svg" xmlns:xlink="http://www.w3.org/1999/xlink">
    <!-- Generator: Sketch 52.4 (67378) - http://www.bohemiancoding.com/sketch -->
    <title>minimize</title>
    <desc>Created with Sketch.</desc>
    <defs>
        <linearGradient x1="134.73888%" y1="-25.6333969%" x2="15.4297851%" y2="124.457267%" id="linearGradient-1">
            <stop stop-color="#BFBDDE" offset="0%"></stop>
            <stop stop-color="#9896C0" offset="100%"></stop>
        </linearGradient>
        <linearGradient x1="162.941241%" y1="-70.6572182%" x2="-23.3706242%" y2="116.880845%" id="linearGradient-2">
            <stop stop-color="#939BBD" offset="0%"></stop>
            <stop stop-color="#9AA2C4" offset="43.0703577%"></stop>
            <stop stop-color="#616991" offset="100%"></stop>
        </linearGradient>
    </defs>
    <g id="Page-1" stroke="none" stroke-width="1" fill="none" fill-rule="evenodd">
        <g id="Home_Page" transform="translate(-1504.000000, -1272.000000)" fill-rule="nonzero">
            <g id="Platforms" transform="translate(342.000000, 1110.000000)">
                <g id="Group-5" transform="translate(1132.000000, 162.000000)">
                    <g id="minimize" transform="translate(30.000000, 0.000000)">
                        <path d="M43.3332813,30 L6.66671875,30 C2.9915625,30 0,32.9898437 0,36.6667188 L0,73.3334375 C0,77.0101562 2.9915625,80 6.66671875,80 L43.3334375,80 C47.0084375,80 50,77.0101562 50,73.3332812 L50,36.6667188 C50,32.9898437 47.0084375,30 43.3332813,30 Z" id="Shape" fill="url(#linearGradient-1)"></path>
                        <path d="M58.3332812,28.3332812 C58.3332812,27.4120312 57.5878125,26.6665625 56.6665625,26.6665625 L55.69,26.6665625 L59.5115625,22.845 C60.1626562,22.1939062 60.1626562,21.1392187 59.5115625,20.4882812 C58.8604687,19.8371875 57.8057812,19.8371875 57.1548437,20.4882812 L53.3332812,24.3098437 L53.3332812,23.3332812 C53.3332812,22.4120312 52.5878125,21.6665625 51.6665625,21.6665625 C50.7453125,21.6665625 49.9998437,22.4120312 49.9998437,23.3332812 L49.9998437,28.3332812 C49.9998437,28.5501562 50.04375,28.7660937 50.1279687,28.9696875 C50.296875,29.3778125 50.621875,29.7029687 51.03,29.8717187 C51.2335937,29.9559375 51.4495312,29.9998437 51.6664062,29.9998437 L56.6664062,29.9998437 C57.5879687,30 58.3332812,29.2545312 58.3332812,28.3332812 Z" id="Shape" fill="url(#linearGradient-1)"></path>
                        <path d="M73.3332812,0 L13.3332812,0 C9.6515625,0 6.66671875,2.9846875 6.66671875,6.66671875 L6.66671875,25 C6.66671875,25.9204687 7.41296875,26.6667187 8.3334375,26.6667187 L11.6667187,26.6667187 C12.5871875,26.6667187 13.3334375,25.9204687 13.3334375,25 L13.3334375,16.6667187 L73.3334375,16.6667187 L73.3334375,66.6667187 L55,66.6667187 C54.0795312,66.6667187 53.3332812,67.4128125 53.3332812,68.3334375 L53.3332812,71.6667187 C53.3332812,72.5871875 54.0795312,73.3334375 55,73.3334375 L73.3332812,73.3334375 C77.0151562,73.3334375 80,70.3485937 80,66.6667187 L80,6.66671875 C80,2.9846875 77.0151562,0 73.3332812,0 Z M15,10 C14.0795312,10 13.3332812,9.25375 13.3332812,8.33328125 C13.3332812,7.41265625 14.0795312,6.6665625 15,6.6665625 C15.9204687,6.6665625 16.6667187,7.41265625 16.6667187,8.33328125 C16.6667187,9.25375 15.9204687,10 15,10 Z M21.6667187,10 C20.74625,10 20,9.25375 20,8.33328125 C20,7.41265625 20.74625,6.6665625 21.6667187,6.6665625 C22.5871875,6.6665625 23.3334375,7.41265625 23.3334375,8.33328125 C23.3332812,9.25375 22.5870312,10 21.6667187,10 Z M28.3332812,10 C27.4128125,10 26.6665625,9.25375 26.6665625,8.33328125 C26.6665625,7.41265625 27.4128125,6.6665625 28.3332812,6.6665625 C29.25375,6.6665625 30,7.41265625 30,8.33328125 C30,9.25375 29.25375,10 28.3332812,10 Z" id="Shape" fill="url(#linearGradient-2)"></path>
                    </g>
                </g>
            </g>
        </g>
    </g>
</svg>