<?xml version="1.0" encoding="UTF-8"?>
<svg width="66px" height="80px" viewBox="0 0 66 80" version="1.1" xmlns="http://www.w3.org/2000/svg" xmlns:xlink="http://www.w3.org/1999/xlink">
    <!-- Generator: Sketch 52.4 (67378) - http://www.bohemiancoding.com/sketch -->
    <title>apple</title>
    <desc>Created with Sketch.</desc>
    <defs>
        <linearGradient x1="134.73888%" y1="-25.6333969%" x2="15.4297851%" y2="124.457267%" id="linearGradient-1">
            <stop stop-color="#BFBDDE" offset="0%"></stop>
            <stop stop-color="#9896C0" offset="100%"></stop>
        </linearGradient>
        <linearGradient x1="162.941241%" y1="-70.6572182%" x2="-23.3706242%" y2="116.880845%" id="linearGradient-2">
            <stop stop-color="#939BBD" offset="0%"></stop>
            <stop stop-color="#9AA2C4" offset="43.0703577%"></stop>
            <stop stop-color="#616991" offset="100%"></stop>
        </linearGradient>
    </defs>
    <g id="Page-1" stroke="none" stroke-width="1" fill="none" fill-rule="evenodd">
        <g id="Home_Page" transform="translate(-342.000000, -1272.000000)" fill-rule="nonzero">
            <g id="Platforms" transform="translate(342.000000, 1110.000000)">
                <g id="Group-8" transform="translate(0.000000, 162.000000)">
                    <g id="apple">
                        <path d="M3.60340984,29.4082623 C-3.15986885,41.1446557 1.13967213,58.9552787 8.6187541,69.7544918 C12.352,75.1535738 16.1316721,80 21.3085902,80 C21.4061639,80 21.504,79.9981639 21.6041967,79.9942295 C24.036459,79.8971803 25.7940984,79.1483279 27.4935082,78.4246557 C29.4014426,77.611541 31.3746885,76.7708852 34.4697705,76.7708852 C37.4142951,76.7708852 39.293377,77.5842623 41.1105574,78.370623 C42.9015082,79.1454426 44.7462295,79.9470164 47.472,79.8958689 C53.3033443,79.7872787 56.8836721,74.5576393 60.0424918,69.9441311 C63.3387541,65.127082 64.9922623,60.4500984 65.5501639,58.6628197 C65.6789508,58.2740984 65.528918,57.9273443 65.2243934,57.787541 C64.1495082,57.3471475 55.1417705,53.351082 55.047082,42.459541 C54.9592131,33.6107541 61.8045902,28.9248525 63.1774426,28.075541 C63.3901639,27.9399344 63.4937705,27.7880656 63.528918,27.6144262 C63.5640656,27.4410492 63.5273443,27.2605902 63.4276721,27.1147541 C58.7026885,20.2001311 51.4607213,19.1580328 48.5450492,19.0326557 C48.1219672,18.9904262 47.6852459,18.9691803 47.2466885,18.9691803 C43.8221639,18.9691803 40.5416393,20.2625574 37.9060984,21.3017705 C36.0868197,22.0191475 34.5154098,22.6386885 33.4316066,22.6386885 C32.2137705,22.6386885 30.6334426,22.011541 28.8034098,21.2855082 C26.3561967,20.3142295 23.5824262,19.2136393 20.6460328,19.2136393 C20.576,19.2136393 20.5070164,19.2144262 20.439082,19.2157377 C13.611541,19.3161967 7.16013115,23.2222951 3.60340984,29.4082623 Z" id="XMLID_229_" fill="url(#linearGradient-1)"></path>
                        <path d="M48.551082,0.000524590164 C44.4165246,0.168918033 39.4567869,2.71396721 36.4923279,6.18622951 C33.9729836,9.10478689 31.5118689,13.9708852 32.1602623,18.8758033 C32.200918,19.1826885 32.450623,19.419541 32.7593443,19.4434098 C33.0384262,19.4651803 33.3232787,19.4761967 33.607082,19.476459 C37.6498361,19.476459 42.0110164,17.2398689 44.989377,13.6385574 C48.1240656,9.83580328 49.7091148,4.95554098 49.2296393,0.584131148 C49.1918689,0.24157377 48.8904918,-0.012852459 48.551082,0.000524590164 Z" id="XMLID_230_" fill="url(#linearGradient-2)"></path>
                    </g>
                </g>
            </g>
        </g>
    </g>
</svg>