<?xml version="1.0" encoding="UTF-8"?>
<svg width="69px" height="80px" viewBox="0 0 69 80" version="1.1" xmlns="http://www.w3.org/2000/svg" xmlns:xlink="http://www.w3.org/1999/xlink">
    <!-- Generator: Sketch 52.4 (67378) - http://www.bohemiancoding.com/sketch -->
    <title>android-logo</title>
    <desc>Created with Sketch.</desc>
    <defs>
        <linearGradient x1="162.941241%" y1="-70.6572182%" x2="-23.3706242%" y2="116.880845%" id="linearGradient-1">
            <stop stop-color="#939BBD" offset="0%"></stop>
            <stop stop-color="#9AA2C4" offset="43.0703577%"></stop>
            <stop stop-color="#616991" offset="100%"></stop>
        </linearGradient>
        <linearGradient x1="134.73888%" y1="-25.6333969%" x2="15.4297851%" y2="124.457267%" id="linearGradient-2">
            <stop stop-color="#BFBDDE" offset="0%"></stop>
            <stop stop-color="#9896C0" offset="100%"></stop>
        </linearGradient>
    </defs>
    <g id="Page-1" stroke="none" stroke-width="1" fill="none" fill-rule="evenodd">
        <g id="Home_Page" transform="translate(-730.000000, -1274.000000)" fill-rule="nonzero">
            <g id="Platforms" transform="translate(342.000000, 1110.000000)">
                <g id="Group-7" transform="translate(388.666667, 164.000000)">
                    <g id="android-logo">
                        <path d="M4.98671937,26.0418972 L4.78213439,26.0418972 C2.15952569,26.0418972 0.0211857708,28.1870356 0.0211857708,30.8028458 L0.0211857708,51.5312253 C0.0211857708,54.1573123 2.15952569,56.2954941 4.78213439,56.2954941 L4.99019763,56.2954941 C7.61280632,56.2954941 9.75114625,54.1503557 9.75114625,51.5312253 L9.75114625,30.8026877 C9.74766798,28.1870356 7.60600791,26.0418972 4.98671937,26.0418972 Z" id="Shape" fill="url(#linearGradient-1)"></path>
                        <path d="M12.029249,59.5320158 C12.029249,61.9397628 13.996996,63.9007115 16.4047431,63.9007115 L21.0804743,63.9007115 L21.0804743,75.0970751 C21.0804743,77.7264822 23.2256126,79.8648221 25.8414229,79.8648221 L26.0460079,79.8648221 C28.6720949,79.8648221 30.8137549,77.7231621 30.8137549,75.0970751 L30.8137549,63.9007115 L37.3481423,63.9007115 L37.3481423,75.0970751 C37.3481423,77.7264822 39.5000791,79.8648221 42.1158893,79.8648221 L42.3171542,79.8648221 C44.943083,79.8648221 47.0814229,77.7231621 47.0814229,75.0970751 L47.0814229,63.9007115 L51.7604743,63.9007115 C54.1647431,63.9007115 56.1326482,61.9397628 56.1326482,59.5320158 L56.1326482,26.8023715 L12.029249,26.8023715 L12.029249,59.5320158 Z" id="Shape" fill="url(#linearGradient-2)"></path>
                        <path d="M45.0657708,6.95383399 L48.7797628,1.22102767 C49.018498,0.85944664 48.9127273,0.365059289 48.5478261,0.129644269 C48.1864032,-0.109090909 47.6918577,-0.0101185771 47.4564427,0.361581028 L43.606166,6.29233202 C40.7176285,5.10893281 37.4913834,4.44395257 34.0842688,4.44395257 C30.673834,4.44395257 27.4543874,5.10893281 24.5590514,6.29233202 L20.7155731,0.361581028 C20.4803162,-0.0101185771 19.9822925,-0.109090909 19.6173913,0.129644269 C19.2524901,0.364901186 19.1467194,0.85944664 19.3854545,1.22102767 L23.1027668,6.95383399 C16.4012648,10.2381028 11.8825296,16.4279842 11.8825296,23.5283794 C11.8825296,23.9649012 11.9098814,24.3946245 11.9473518,24.8208696 L56.2245059,24.8208696 C56.2619763,24.3946245 56.2858498,23.9649012 56.2858498,23.5283794 C56.2860079,16.4279842 51.7637945,10.2381028 45.0657708,6.95383399 Z M23.8189723,17.2191304 C22.6423715,17.2191304 21.6874308,16.2709881 21.6874308,15.0910672 C21.6874308,13.9111462 22.6423715,12.9663241 23.8189723,12.9663241 C25.0023715,12.9663241 25.9505138,13.9109881 25.9505138,15.0910672 C25.9505138,16.2711462 24.9955731,17.2191304 23.8189723,17.2191304 Z M44.3462451,17.2191304 C43.1696443,17.2191304 42.2147036,16.2709881 42.2147036,15.0910672 C42.2147036,13.9111462 43.1696443,12.9663241 44.3462451,12.9663241 C45.526166,12.9663241 46.4743083,13.9109881 46.4743083,15.0910672 C46.4743083,16.2709881 45.526166,17.2191304 44.3462451,17.2191304 Z" id="Shape" fill="url(#linearGradient-2)"></path>
                        <path d="M63.3796047,26.0418972 L63.1818182,26.0418972 C60.5592095,26.0418972 58.4140711,28.1870356 58.4140711,30.8028458 L58.4140711,51.5312253 C58.4140711,54.1573123 60.5626877,56.2954941 63.1818182,56.2954941 L63.383083,56.2954941 C66.0090119,56.2954941 68.1440316,54.1503557 68.1440316,51.5312253 L68.1440316,30.8026877 C68.1440316,28.1870356 66.0022134,26.0418972 63.3796047,26.0418972 Z" id="Shape" fill="url(#linearGradient-1)"></path>
                    </g>
                </g>
            </g>
        </g>
    </g>
</svg>