<?xml version="1.0" encoding="UTF-8"?>
<svg width="47px" height="80px" viewBox="0 0 47 80" version="1.1" xmlns="http://www.w3.org/2000/svg" xmlns:xlink="http://www.w3.org/1999/xlink">
    <!-- Generator: Sketch 52.4 (67378) - http://www.bohemiancoding.com/sketch -->
    <title>apple-watch copy</title>
    <desc>Created with Sketch.</desc>
    <defs>
        <linearGradient x1="162.941241%" y1="-70.6572182%" x2="-23.3706242%" y2="116.880845%" id="linearGradient-1">
            <stop stop-color="#939BBD" offset="0%"></stop>
            <stop stop-color="#9AA2C4" offset="43.0703577%"></stop>
            <stop stop-color="#616991" offset="100%"></stop>
        </linearGradient>
        <linearGradient x1="134.73888%" y1="-25.6333969%" x2="15.4297851%" y2="124.457267%" id="linearGradient-2">
            <stop stop-color="#BFBDDE" offset="0%"></stop>
            <stop stop-color="#9896C0" offset="100%"></stop>
        </linearGradient>
    </defs>
    <g id="Page-1" stroke="none" stroke-width="1" fill="none" fill-rule="evenodd">
        <g id="Home_Page" transform="translate(-1130.000000, -1272.000000)" fill-rule="nonzero">
            <g id="Platforms" transform="translate(342.000000, 1110.000000)">
                <g id="Group-6" transform="translate(769.000000, 162.000000)">
                    <g id="apple-watch-copy" transform="translate(19.000000, 0.000000)">
                        <path d="M36.7023782,2.66729045 C36.3748928,1.09224172 34.971384,-0.0305653021 33.3651462,0.000623781676 L13.4041326,0.000623781676 C11.7978947,-0.0305653021 10.394386,1.09224172 10.0824951,2.66729045 L7.41582846,13.645848 L39.4470175,13.645848 L36.7023782,2.66729045 Z" id="Shape" fill="url(#linearGradient-1)"></path>
                        <path d="M7.33785575,66.1994542 L10.0669006,77.1780117 C10.394386,78.7530604 11.7823002,79.8758674 13.388538,79.8446784 L33.3495517,79.8446784 C34.9557895,79.8758674 36.3592982,78.7530604 36.6711891,77.1780117 L39.3378558,66.1994542 L7.33785575,66.1994542 Z" id="Shape" fill="url(#linearGradient-1)"></path>
                        <path d="M36.6867836,16.64 L10.0824951,16.64 C4.57762183,16.64 0.101988304,21.1156335 0.101988304,26.6205068 L0.101988304,53.2403899 C0.101988304,58.7452632 4.57762183,63.2208967 10.0824951,63.2208967 L36.7023782,63.2208967 C42.2072515,63.2208967 46.682885,58.7452632 46.682885,53.2403899 L46.682885,26.6205068 C46.6672904,21.100039 42.2072515,16.64 36.6867836,16.64 Z M13.4041326,43.2442885 C11.5639766,43.2442885 10.0824951,41.7472125 10.0824951,39.9226511 C10.0824951,38.0824951 11.5795712,36.6010136 13.4041326,36.6010136 C15.2442885,36.6010136 16.72577,38.0980897 16.72577,39.9226511 C16.72577,41.762807 15.2442885,43.2442885 13.4041326,43.2442885 Z M23.3846394,43.2442885 C21.5444834,43.2442885 20.0630019,41.7472125 20.0630019,39.9226511 C20.0630019,38.0824951 21.560078,36.6010136 23.3846394,36.6010136 C25.2247953,36.6010136 26.7062768,38.0980897 26.7062768,39.9226511 C26.7062768,41.762807 25.2247953,43.2442885 23.3846394,43.2442885 Z M33.3651462,43.2442885 C31.5249903,43.2442885 30.0435088,41.7472125 30.0435088,39.9226511 C30.0435088,38.0824951 31.5405848,36.6010136 33.3651462,36.6010136 C35.2053021,36.6010136 36.6867836,38.0980897 36.6867836,39.9226511 C36.6867836,41.762807 35.2053021,43.2442885 33.3651462,43.2442885 Z" id="Shape" fill="url(#linearGradient-2)"></path>
                    </g>
                </g>
            </g>
        </g>
    </g>
</svg>