<?xml version="1.0" encoding="UTF-8"?>
<svg width="221px" height="24px" viewBox="0 0 221 24" version="1.1" xmlns="http://www.w3.org/2000/svg" xmlns:xlink="http://www.w3.org/1999/xlink">
    <!-- Generator: Sketch 52.4 (67378) - http://www.bohemiancoding.com/sketch -->
    <title>Group 22</title>
    <desc>Created with Sketch.</desc>
    <defs>
        <polygon id="path-1" points="0.094875 0.570225 19.492125 0.570225 19.492125 23.25 0.094875 23.25"></polygon>
        <polygon id="path-3" points="0.57165 0.181275 14.4555 0.181275 14.4555 22.073775 0.57165 22.073775"></polygon>
    </defs>
    <g id="Symbols" stroke="none" stroke-width="1" fill="none" fill-rule="evenodd">
        <g id="header" transform="translate(0.000000, -8.000000)">
            <g id="Group-22" transform="translate(0.000000, 8.000000)">
                <polygon id="Fill-1" fill="#FEFEFE" points="0 1.1109 0 6.03465 6.138 6.03465 6.138 23.0034 11.7825 23.0034 11.7825 6.03465 17.8875 6.03465 17.8875 1.1109"></polygon>
                <polygon id="Fill-2" fill="#FEFEFE" points="22.2183 1.1109 22.2183 23.0034 38.26755 23.0034 38.26755 18.2439 27.86355 18.2439 27.86355 14.3049 38.03805 14.3049 38.03805 9.51315 27.86355 9.51315 27.86355 5.8704 38.26755 5.8704 38.26755 1.1109"></polygon>
                <g id="Group-21" transform="translate(42.000000, 0.179775)">
                    <path d="M0.0729,11.8938 C0.0729,5.13255 5.19315,0.5703 11.7579,0.5703 C17.2059,0.5703 20.02815,3.5568 21.47265,6.44505 L16.6149,8.74305 C15.89265,7.00305 14.02215,5.5593 11.7579,5.5593 C8.3439,5.5593 5.81715,8.3163 5.81715,11.8938 C5.81715,15.4713 8.3439,18.2283 11.7579,18.2283 C14.02215,18.2283 15.89265,16.78455 16.6149,15.04455 L21.47265,17.34255 C20.06115,20.1648 17.2059,23.21805 11.7579,23.21805 C5.19315,23.21805 0.0729,18.62205 0.0729,11.8938" id="Fill-3" fill="#FEFEFE"></path>
                    <polygon id="Fill-5" fill="#FEFEFE" points="40.27695 14.02695 31.18545 14.02695 31.18545 22.8237 25.5402 22.8237 25.5402 0.9312 31.18545 0.9312 31.18545 9.10395 40.27695 9.10395 40.27695 0.9312 45.9222 0.9312 45.9222 22.8237 40.27695 22.8237"></polygon>
                    <path d="M61.08285,2.6382 L54.9456,2.6382 L54.9456,12.0582 L61.08285,12.0582 C63.9711,12.0582 65.9406,10.0887 65.9406,7.3317 C65.9406,4.5747 63.9711,2.6382 61.08285,2.6382 Z M59.77035,13.76445 L54.9456,13.76445 L54.9456,22.8237 L53.07435,22.8237 L53.07435,0.9312 L61.2471,0.9312 C65.0211,0.9312 67.9101,3.32745 67.9101,7.3317 C67.9101,11.30295 65.0871,13.50195 61.8381,13.6332 L68.1726,22.8237 L65.9076,22.8237 L59.77035,13.76445 Z" id="Fill-7" fill="#FEFEFE"></path>
                    <path d="M76.86765,15.733875 L87.33765,15.733875 L82.08615,2.769375 L76.86765,15.733875 Z M87.92865,17.440875 L76.2774,17.440875 L74.07765,22.823625 L71.9769,22.823625 L80.9379,0.931125 L83.26815,0.931125 L92.22765,22.823625 L90.12765,22.823625 L87.92865,17.440875 Z" id="Fill-9" fill="#FEFEFE"></path>
                    <polygon id="Fill-11" fill="#FEFEFE" points="98.955675 3.918075 98.955675 22.824075 97.083675 22.824075 97.083675 0.931575 98.988675 0.931575 112.707675 19.574325 112.707675 0.931575 114.578925 0.931575 114.578925 22.824075 112.740675 22.824075"></polygon>
                    <g id="Group-15" transform="translate(120.750000, 0.000000)">
                        <mask id="mask-2" fill="white">
                            <use xlink:href="#path-1"></use>
                        </mask>
                        <g id="Clip-14"></g>
                        <path d="M11.188875,0.570225 C14.798625,0.570225 17.424375,2.014725 19.426875,4.311975 L18.016125,5.329725 C16.473375,3.491475 13.978875,2.277225 11.188875,2.277225 C6.035625,2.277225 2.064375,6.182475 2.064375,11.893725 C2.064375,17.538975 6.035625,21.543225 11.188875,21.543225 C14.110125,21.543225 16.407375,20.099475 17.621625,18.884475 L17.621625,13.632975 L9.350625,13.632975 L9.350625,11.959725 L19.492125,11.959725 L19.492125,19.606725 C17.555625,21.773475 14.635125,23.250225 11.188875,23.250225 C5.050875,23.250225 0.094875,18.654975 0.094875,11.893725 C0.094875,5.132475 5.050875,0.570225 11.188875,0.570225" id="Fill-13" fill="#FEFEFE" mask="url(#mask-2)"></path>
                    </g>
                    <polygon id="Fill-16" fill="#FEFEFE" points="146.64 0.931275 148.51125 0.931275 148.51125 21.116775 159.1125 21.116775 159.1125 22.823775 146.64 22.823775"></polygon>
                    <g id="Group-20" transform="translate(164.250000, 0.750000)">
                        <mask id="mask-4" fill="white">
                            <use xlink:href="#path-3"></use>
                        </mask>
                        <g id="Clip-19"></g>
                        <polygon id="Fill-18" fill="#FEFEFE" mask="url(#mask-4)" points="0.57165 0.181275 14.45565 0.181275 14.45565 1.888275 2.4429 1.888275 2.4429 9.995025 14.2254 9.995025 14.2254 11.701275 2.4429 11.701275 2.4429 20.366775 14.45565 20.366775 14.45565 22.073775 0.57165 22.073775"></polygon>
                    </g>
                </g>
            </g>
        </g>
    </g>
</svg>